<svg xmlns="http://www.w3.org/2000/svg" version="1.1" xmlns:xlink="http://www.w3.org/1999/xlink" xmlns:svgjs="http://svgjs.dev/svgjs" width="1500" height="1500" viewBox="0 0 1500 1500"><rect width="1500" height="1500" fill="#000000"></rect><g transform="matrix(0.6666666666666666,0,0,0.6666666666666666,249.39393939393938,614.3281912869627)"><svg viewBox="0 0 396 107" data-background-color="#89939e" preserveAspectRatio="xMidYMid meet" height="405" width="1500" xmlns="http://www.w3.org/2000/svg" xmlns:xlink="http://www.w3.org/1999/xlink"><g id="tight-bounds" transform="matrix(1,0,0,1,0.2400000000000091,0.266235304796254)"><svg viewBox="0 0 395.52 106.46752939040749" height="106.46752939040749" width="395.52"><g><svg viewBox="0 0 670.3602599456706 180.4500421670886" height="106.46752939040749" width="395.52"><g><rect width="11.775087573857864" height="156.68599898734178" x="426.3448365807797" y="11.882021589873418" fill="#ffffff" opacity="1" stroke-width="0" stroke="transparent" fill-opacity="1" class="rect-yte-0" data-fill-palette-color="primary" rx="1%" id="yte-0" data-palette-color="#ffffff"></rect></g><g transform="matrix(1,0,0,1,0,24.9391881721519)"><svg viewBox="0 0 395.52 130.5716658227848" height="130.5716658227848" width="395.52"><g id="textblocktransform"><svg viewBox="0 0 395.52 130.5716658227848" height="130.5716658227848" width="395.52" id="textblock"><g><svg viewBox="0 0 395.52 130.5716658227848" height="130.5716658227848" width="395.52"><g transform="matrix(1,0,0,1,0,0)"><svg width="395.52" viewBox="2 -21.5 98.74 32.599999999999994" height="130.5716658227848" data-palette-color="#ffffff"><path d="M9.5-21.35L9.5-21.35Q10.95-21.35 11.93-21.13 12.9-20.9 14.5-20.7L14.5-20.7Q14.75-19.6 14.9-18.13 15.05-16.65 15.1-15.35L15.1-15.35Q15.1-15.1 14.6-15.1L14.6-15.1Q14.4-15.1 14.18-15.15 13.95-15.2 13.75-15.35L13.75-15.35Q13.5-16.25 12.93-17.3 12.35-18.35 11.53-19.07 10.7-19.8 9.65-19.8L9.65-19.8Q7.9-19.8 7.05-18.93 6.2-18.05 6.2-16.75L6.2-16.75Q6.2-15.5 6.8-14.73 7.4-13.95 8.38-13.38 9.35-12.8 10.45-12.15L10.45-12.15Q11.55-11.5 12.85-10.7 14.15-9.9 15.1-8.83 16.05-7.75 16.05-6.2L16.05-6.2Q16.05-4.25 15-2.73 13.95-1.2 12.25-0.33 10.55 0.55 8.55 0.55L8.55 0.55Q6.85 0.55 5.65 0.23 4.45-0.1 2.85-0.4L2.85-0.4Q2.65-0.95 2.45-1.9 2.25-2.85 2.13-3.85 2-4.85 2-5.45L2-5.45Q2.4-5.75 2.9-5.75L2.9-5.75Q3.15-5.75 3.3-5.65L3.3-5.65Q3.6-4.65 4.35-3.58 5.1-2.5 6.2-1.78 7.3-1.05 8.6-1.05L8.6-1.05Q10.1-1.05 11.1-1.95 12.1-2.85 12.1-4.55L12.1-4.55Q12.1-6.05 11.2-6.98 10.3-7.9 8.95-8.63 7.6-9.35 6.15-10.15L6.15-10.15Q4.7-11 3.58-12.23 2.45-13.45 2.45-15.4L2.45-15.4Q2.45-17.2 3.48-18.55 4.5-19.9 6.1-20.63 7.7-21.35 9.5-21.35ZM29.75-21.3L29.75-21.3Q31.15-21.3 32.37-20.4 33.6-19.5 34.35-18 35.1-16.5 35.1-14.6L35.1-14.6 35.1-4.55Q35.1-3.6 35.45-2.93 35.8-2.25 36.6-2.25L36.6-2.25Q37.3-2.25 37.7-2.55 38.1-2.85 38.2-2.9L38.2-2.9Q38.3-2.9 38.35-2.75 38.4-2.6 38.4-2.5L38.4-2.5Q38.4-1.95 38.15-1.55L38.15-1.55Q37.85-1.3 37.17-0.85 36.5-0.4 35.77-0.05 35.05 0.3 34.5 0.3L34.5 0.3Q33.45 0.3 32.62-0.75 31.8-1.8 31.55-2.9L31.55-2.9Q31.35-2.7 30.62-2.15 29.9-1.6 28.95-1.03 28-0.45 27.07-0.03 26.15 0.4 25.5 0.4L25.5 0.4Q23.1 0.4 21.45-1.23 19.8-2.85 19.8-5.2L19.8-5.2Q19.8-6.7 20.62-7.78 21.45-8.85 22.25-9.15L22.25-9.15Q23.65-9.65 25.37-10.23 27.1-10.8 28.6-11.35 30.1-11.9 30.8-12.2L30.8-12.2Q31.2-12.35 31.3-12.58 31.4-12.8 31.4-13.45L31.4-13.45 31.4-14.75Q31.4-15.85 30.85-16.93 30.3-18 29.35-18.73 28.4-19.45 27.2-19.45L27.2-19.45Q25.95-19.45 25.35-18.65 24.75-17.85 24.5-16.4L24.5-16.4Q24.05-14.05 22.2-14.05L22.2-14.05Q21.4-14.05 20.97-14.7 20.55-15.35 20.55-16.1L20.55-16.1Q20.55-16.25 20.65-16.68 20.75-17.1 20.9-17.3L20.9-17.3Q21.65-18 23.05-18.95 24.45-19.9 26.22-20.6 28-21.3 29.75-21.3ZM27.15-2.25L27.15-2.25Q28-2.25 29-2.65 30-3.05 30.7-3.53 31.4-4 31.4-4.25L31.4-4.25 31.4-10.9Q30.45-10.6 29-10.15 27.55-9.7 26.85-9.45L26.85-9.45Q25.55-8.95 24.7-8 23.85-7.05 23.85-5.65L23.85-5.65Q23.85-4.3 24.8-3.28 25.75-2.25 27.15-2.25ZM47.95-3.25L53.7-3.25Q55.65-3.25 57.37-2.55 59.1-1.85 60.17-0.7 61.25 0.45 61.25 1.85L61.25 1.85Q61.25 3.35 60.22 4.95 59.2 6.55 57.45 7.95 55.7 9.35 53.4 10.23 51.1 11.1 48.55 11.1L48.55 11.1Q46.6 11.1 44.65 10.45 42.7 9.8 41.4 8.47 40.1 7.15 40.1 5.15L40.1 5.15Q40.1 4.05 41.05 3.05 42 2.05 43.25 1.25 44.5 0.45 45.3 0.05L45.3 0.05Q44.45-0.25 43.52-0.85 42.6-1.45 41.95-2.38 41.3-3.3 41.3-4.5L41.3-4.5Q41.75-5 42.57-5.68 43.4-6.35 44.22-6.95 45.05-7.55 45.5-7.8L45.5-7.8Q43.7-8.8 42.57-10.53 41.45-12.25 41.45-14.05L41.45-14.05Q41.45-16 42.52-17.68 43.6-19.35 45.47-20.4 47.35-21.45 49.7-21.45L49.7-21.45Q51.3-21.45 52.4-21.03 53.5-20.6 54.15-20.35L54.15-20.35Q54.85-20.1 54.87-20.1 54.9-20.1 55.25-20L55.25-20 60.5-20.75Q60.95-20.6 60.95-20.25L60.95-20.25Q60.95-19.95 60.6-19.23 60.25-18.5 59.85-18.25L59.85-18.25Q59.25-18.3 58.5-18.32 57.75-18.35 57.2-18.4 56.65-18.45 56.65-18.45L56.65-18.45Q56.45-18.45 56.45-18.3L56.45-18.3Q56.65-18.1 57.22-16.82 57.8-15.55 57.8-13.85L57.8-13.85Q57.8-12.15 56.72-10.5 55.65-8.85 53.77-7.78 51.9-6.7 49.55-6.7L49.55-6.7Q48.9-6.7 48.05-6.85 47.2-7 46.8-7.15L46.8-7.15Q46.15-6.8 45.57-6.2 45-5.6 45-5L45-5Q45-4.65 45.75-3.95 46.5-3.25 47.95-3.25L47.95-3.25ZM51.45 0.2L51.45 0.2Q51 0.2 49.97 0.23 48.95 0.25 48.02 0.3 47.1 0.35 46.9 0.45L46.9 0.45Q46.1 0.95 45.05 1.85 44 2.75 44 3.7L44 3.7Q44 6.05 45.7 7.63 47.4 9.2 50.5 9.2L50.5 9.2Q52.2 9.2 53.9 8.45 55.6 7.7 56.75 6.5 57.9 5.3 57.9 3.95L57.9 3.95Q57.9 3.25 57.25 2.38 56.6 1.5 55.2 0.85 53.8 0.2 51.45 0.2ZM49.5-19.95L49.5-19.95Q48.1-19.95 47.15-19.1 46.2-18.25 45.7-16.95 45.2-15.65 45.2-14.25L45.2-14.25Q45.2-12.75 45.75-11.35 46.3-9.95 47.35-9.05 48.4-8.15 49.9-8.15L49.9-8.15Q51.25-8.15 52.17-8.97 53.1-9.8 53.57-11.08 54.05-12.35 54.05-13.7L54.05-13.7Q54.05-15.25 53.55-16.68 53.05-18.1 52.05-19.03 51.05-19.95 49.5-19.95ZM73.49-21.3L73.49-21.3Q74.89-21.3 76.12-20.4 77.34-19.5 78.09-18 78.84-16.5 78.84-14.6L78.84-14.6 78.84-4.55Q78.84-3.6 79.19-2.93 79.54-2.25 80.34-2.25L80.34-2.25Q81.04-2.25 81.44-2.55 81.84-2.85 81.94-2.9L81.94-2.9Q82.04-2.9 82.09-2.75 82.14-2.6 82.14-2.5L82.14-2.5Q82.14-1.95 81.89-1.55L81.89-1.55Q81.59-1.3 80.92-0.85 80.24-0.4 79.52-0.05 78.79 0.3 78.24 0.3L78.24 0.3Q77.19 0.3 76.37-0.75 75.54-1.8 75.29-2.9L75.29-2.9Q75.09-2.7 74.37-2.15 73.64-1.6 72.69-1.03 71.74-0.45 70.82-0.03 69.89 0.4 69.24 0.4L69.24 0.4Q66.84 0.4 65.19-1.23 63.54-2.85 63.54-5.2L63.54-5.2Q63.54-6.7 64.37-7.78 65.19-8.85 65.99-9.15L65.99-9.15Q67.39-9.65 69.12-10.23 70.84-10.8 72.34-11.35 73.84-11.9 74.54-12.2L74.54-12.2Q74.94-12.35 75.04-12.58 75.14-12.8 75.14-13.45L75.14-13.45 75.14-14.75Q75.14-15.85 74.59-16.93 74.04-18 73.09-18.73 72.14-19.45 70.94-19.45L70.94-19.45Q69.69-19.45 69.09-18.65 68.49-17.85 68.24-16.4L68.24-16.4Q67.79-14.05 65.94-14.05L65.94-14.05Q65.14-14.05 64.72-14.7 64.29-15.35 64.29-16.1L64.29-16.1Q64.29-16.25 64.39-16.68 64.49-17.1 64.64-17.3L64.64-17.3Q65.39-18 66.79-18.95 68.19-19.9 69.97-20.6 71.74-21.3 73.49-21.3ZM70.89-2.25L70.89-2.25Q71.74-2.25 72.74-2.65 73.74-3.05 74.44-3.53 75.14-4 75.14-4.25L75.14-4.25 75.14-10.9Q74.19-10.6 72.74-10.15 71.29-9.7 70.59-9.45L70.59-9.45Q69.29-8.95 68.44-8 67.59-7.05 67.59-5.65L67.59-5.65Q67.59-4.3 68.54-3.28 69.49-2.25 70.89-2.25ZM97.54-21.35L97.54-21.35Q98.49-21.35 99.34-20.93 100.19-20.5 100.54-19.9L100.54-19.9Q100.64-19.7 100.69-19.35 100.74-19 100.74-18.6L100.74-18.6Q100.74-17.25 100.12-16.65 99.49-16.05 99.09-16.05L99.09-16.05Q98.59-16.05 98.14-16.4 97.69-16.75 97.29-17L97.29-17Q96.94-17.25 96.57-17.43 96.19-17.6 95.49-17.6L95.49-17.6Q94.44-17.6 93.57-16.73 92.69-15.85 92.14-14.8 91.59-13.75 91.59-13.2L91.59-13.2 91.59-5.65Q91.59-4.55 91.62-3.6 91.64-2.65 91.84-2.05L91.84-2.05Q91.94-1.8 92.84-1.6 93.74-1.4 94.74-1.33 95.74-1.25 96.04-1.25L96.04-1.25Q96.19-1.05 96.22-0.55 96.24-0.05 96.04 0.15L96.04 0.15Q94.54 0.05 92.99-0.03 91.44-0.1 89.99-0.1L89.99-0.1Q88.59-0.1 87.29-0.03 85.99 0.05 84.49 0.15L84.49 0.15Q84.29-0.05 84.32-0.55 84.34-1.05 84.49-1.25L84.49-1.25Q84.79-1.25 85.52-1.33 86.24-1.4 86.89-1.6 87.54-1.8 87.59-2.05L87.59-2.05Q87.79-2.65 87.82-3.6 87.84-4.55 87.84-5.65L87.84-5.65 87.84-14.75Q87.84-15.25 87.82-16.05 87.79-16.85 87.59-17.3L87.59-17.3Q87.44-17.75 86.74-17.93 86.04-18.1 85.34-18.13 84.64-18.15 84.44-18.15L84.44-18.15Q84.39-18.25 84.34-18.75 84.29-19.25 84.44-19.45L84.44-19.45Q86.34-19.7 88.14-20.2 89.94-20.7 91.39-21.5L91.39-21.5Q91.59-21.5 91.77-21.2 91.94-20.9 91.94-20.7L91.94-20.7Q91.94-20.55 91.84-19.55 91.74-18.55 91.67-17.53 91.59-16.5 91.59-16.2L91.59-16.2Q91.59-16.05 91.67-16.05 91.74-16.05 91.79-16.1L91.79-16.1Q92.29-17.15 93.22-18.38 94.14-19.6 95.29-20.48 96.44-21.35 97.54-21.35Z" opacity="1" transform="matrix(1,0,0,1,0,0)" fill="#ffffff" class="wordmark-text-0" data-fill-palette-color="primary" id="text-0"></path></svg></g></svg></g></svg></g></svg></g><g transform="matrix(1,0,0,1,468.94476073541733,0)"><svg viewBox="0 0 201.41549921025322 180.4500421670886" height="180.4500421670886" width="201.41549921025322"><g><svg xmlns="http://www.w3.org/2000/svg" xmlns:xlink="http://www.w3.org/1999/xlink" version="1.1" x="0" y="0" viewBox="0.985 6.087 98.03 87.826" enable-background="new 0 0 100 100" xml:space="preserve" height="180.4500421670886" width="201.41549921025322" class="icon-icon-0" data-fill-palette-color="accent" id="icon-0"><path d="M50 6.087C22.93 6.087 0.985 25.748 0.985 50 0.985 74.253 22.93 93.913 50 93.913S99.015 74.253 99.015 50 77.07 6.087 50 6.087M74.833 69.08C42.708 88.246 13.982 68.413 8.454 62.626 22.946 73.957 45.742 77.477 64.833 69.413 76.146 64.037 82.172 56.755 85 47.079 87.829 36.328 84.464 26.114 73.857 19.125 63.958 12.674 51.229 10.524 38.502 13.749 28.603 16.975 20.824 22.888 17.996 31.489 14.461 40.628 20.825 49.766 31.431 54.604 42.037 58.367 56.887 56.754 62.544 48.154 66.079 42.24 64.665 34.714 56.887 30.951 53.352 29.338 48.584 28.996 46.027 31.125 42.506 34.057 47.917 31.486 51.901 33.331 54.418 34.496 57.501 36.496 56.887 41.703 56.115 48.262 45.574 51.38 38.502 49.229 30.724 46.541 27.188 40.628 27.896 34.714 29.31 28.263 35.674 23.425 43.453 21.812 56.888 19.124 68.908 26.113 73.151 35.79 76.686 44.928 71.03 53.529 61.13 58.905 52.646 63.206 42.745 64.281 33.553 61.593 20.118 57.83 10.926 48.692 10.219 37.403 9.511 22.888 22.238 12.137 39.916 8.374 59.715 5.149 79.514 12.675 87.999 26.651 95.777 41.166 91.609 59.071 74.833 69.08" fill="#ffffff" data-fill-palette-color="accent"></path></svg></g></svg></g></svg></g><defs></defs></svg><rect width="395.52" height="106.46752939040749" fill="none" stroke="none" visibility="hidden"></rect></g></svg></g></svg>