<svg xmlns="http://www.w3.org/2000/svg" version="1.1" xmlns:xlink="http://www.w3.org/1999/xlink" xmlns:svgjs="http://svgjs.dev/svgjs" width="1500" height="1500" viewBox="0 0 1500 1500"><rect width="1500" height="1500" fill="#000000"></rect><g transform="matrix(0.6666666666666666,0,0,0.6666666666666666,249.85778443113782,249.85778443113765)"><svg viewBox="0 0 334 334" data-background-color="#000000" preserveAspectRatio="xMidYMid meet" height="1500" width="1500" xmlns="http://www.w3.org/2000/svg" xmlns:xlink="http://www.w3.org/1999/xlink"><g id="tight-bounds" transform="matrix(1,0,0,1,0.04749999999998522,0.04750000000001364)"><svg viewBox="0 0 333.90454557049503 333.90454557049503" height="333.90454557049503" width="333.90454557049503"><rect width="333.905" height="333.905" fill="#ffffff" mask="url(#6aa66850-5878-493b-aca8-002cd6c2bdd7)" data-fill-palette-color="tertiary"></rect><g><svg></svg></g><g><svg viewBox="0 0 333.90454557049503 333.90454557049503" height="333.90454557049503" width="333.90454557049503"><g><path d="M0 166.952c0-92.205 74.747-166.952 166.952-166.952 92.205 0 166.952 74.747 166.953 166.952 0 92.205-74.747 166.952-166.953 166.953-92.205 0-166.952-74.747-166.952-166.953zM166.952 316.63c82.665 0 149.677-67.013 149.678-149.678 0-82.665-67.013-149.677-149.678-149.677-82.665 0-149.677 67.013-149.677 149.677 0 82.665 67.013 149.677 149.677 149.678z" data-fill-palette-color="tertiary" fill="#ffffff" stroke="transparent"></path><ellipse rx="160.27418187383762" ry="160.27418187383762" cx="166.95227278524752" cy="166.95227278524752" fill="#ffffff" stroke="transparent" stroke-width="0" fill-opacity="1" data-fill-palette-color="tertiary"></ellipse></g><g transform="matrix(1,0,0,1,88.99244205326498,71.17305217166896)"><svg viewBox="0 0 155.91966146396507 191.55844122715712" height="191.55844122715712" width="155.91966146396507"><g><svg viewBox="0 0 155.91966146396507 191.55844122715712" height="191.55844122715712" width="155.91966146396507"><g><svg viewBox="0 0 155.91966146396507 191.55844122715712" height="191.55844122715712" width="155.91966146396507"><g><svg viewBox="0 0 155.91966146396507 191.55844122715712" height="191.55844122715712" width="155.91966146396507"><g id="textblocktransform"><svg viewBox="0 0 155.91966146396507 191.55844122715712" height="191.55844122715712" width="155.91966146396507" id="textblock"><g><svg viewBox="0 0 155.91966146396507 191.55844122715712" height="191.55844122715712" width="155.91966146396507"><g transform="matrix(1,0,0,1,0,0)"><svg width="155.91966146396507" viewBox="3.3 -30.1 24.499999999999996 30.1" height="191.55844122715712" data-palette-color="#000000"><path d="M12.45-17.5L19.8-17.5Q21.05-17.5 22.48-16.93 23.9-16.35 25.15-15.5L25.15-15.5 25.1-15.5Q26.4-14.55 27.1-13.05 27.8-11.55 27.8-9.45L27.8-9.45 27.8-7.95Q27.8-3.85 25.1-1.9L25.1-1.9Q23.8-0.9 22.45-0.45 21.1 0 19.8 0L19.8 0 11.3 0Q10 0 8.65-0.45 7.3-0.9 6-1.9L6-1.9Q3.3-3.8 3.3-7.95L3.3-7.95 3.3-8.55Q3.3-10.7 6.05-10.65L6.05-10.65Q8.85-10.65 8.85-8.55L8.85-8.55 8.85-8Q8.85-6.8 9.6-5.75 10.35-4.7 12.25-4.7L12.25-4.7 18.85-4.7Q20.75-4.7 21.5-5.75 22.25-6.8 22.25-8L22.25-8 22.25-9.4Q22.25-10.05 22.08-10.65 21.9-11.25 21.5-11.73 21.1-12.2 20.45-12.5 19.8-12.8 18.85-12.8L18.85-12.8 11.55-12.8Q9-12.8 6.2-14.6L6.2-14.6Q3.55-16.3 3.55-20.45L3.55-20.45 3.55-22.15Q3.55-24.15 4.25-25.68 4.95-27.2 6.25-28.15L6.25-28.15 6.2-28.15Q7.45-29 8.85-29.55 10.25-30.1 11.55-30.1L11.55-30.1 19.55-30.1Q20.85-30.1 22.23-29.55 23.6-29 24.9-28.15L24.9-28.15 24.85-28.15Q26.15-27.2 26.85-25.68 27.55-24.15 27.55-22.15L27.55-22.15 27.55-21.7Q27.55-20.65 26.85-20.18 26.15-19.7 24.8-19.65L24.8-19.65Q22.05-19.6 22.05-21.7L22.05-21.7 22.05-22.1Q22.05-23.35 21.28-24.38 20.5-25.4 18.65-25.4L18.65-25.4 12.45-25.4Q10.6-25.4 9.83-24.38 9.05-23.35 9.05-22.1L9.05-22.1 9.05-20.9Q9.05-19.6 9.83-18.55 10.6-17.5 12.45-17.5L12.45-17.5Z" opacity="1" transform="matrix(1,0,0,1,0,0)" fill="#000000" class="wordmark-text-0" data-fill-palette-color="quaternary" id="text-0"></path></svg></g></svg></g></svg></g></svg></g><g></g></svg></g></svg></g></svg></g></svg></g><defs></defs><mask id="6aa66850-5878-493b-aca8-002cd6c2bdd7"><g id="SvgjsG2627"><svg viewBox="0 0 333.90454557049503 333.90454557049503" height="333.90454557049503" width="333.90454557049503"><g><svg></svg></g><g><svg viewBox="0 0 333.90454557049503 333.90454557049503" height="333.90454557049503" width="333.90454557049503"><g><path d="M0 166.952c0-92.205 74.747-166.952 166.952-166.952 92.205 0 166.952 74.747 166.953 166.952 0 92.205-74.747 166.952-166.953 166.953-92.205 0-166.952-74.747-166.952-166.953zM166.952 316.63c82.665 0 149.677-67.013 149.678-149.678 0-82.665-67.013-149.677-149.678-149.677-82.665 0-149.677 67.013-149.677 149.677 0 82.665 67.013 149.677 149.677 149.678z" fill="white" stroke="transparent"></path><ellipse rx="160.27418187383762" ry="160.27418187383762" cx="166.95227278524752" cy="166.95227278524752" fill="white" stroke="transparent" stroke-width="0" fill-opacity="1"></ellipse></g><g transform="matrix(1,0,0,1,88.99244205326498,71.17305217166896)"><svg viewBox="0 0 155.91966146396507 191.55844122715712" height="191.55844122715712" width="155.91966146396507"><g><svg viewBox="0 0 155.91966146396507 191.55844122715712" height="191.55844122715712" width="155.91966146396507"><g><svg viewBox="0 0 155.91966146396507 191.55844122715712" height="191.55844122715712" width="155.91966146396507"><g><svg viewBox="0 0 155.91966146396507 191.55844122715712" height="191.55844122715712" width="155.91966146396507"><g id="SvgjsG2626"><svg viewBox="0 0 155.91966146396507 191.55844122715712" height="191.55844122715712" width="155.91966146396507" id="SvgjsSvg2625"><g><svg viewBox="0 0 155.91966146396507 191.55844122715712" height="191.55844122715712" width="155.91966146396507"><g transform="matrix(1,0,0,1,0,0)"><svg width="155.91966146396507" viewBox="3.3 -30.1 24.499999999999996 30.1" height="191.55844122715712" data-palette-color="#000000"><path d="M12.45-17.5L19.8-17.5Q21.05-17.5 22.48-16.93 23.9-16.35 25.15-15.5L25.15-15.5 25.1-15.5Q26.4-14.55 27.1-13.05 27.8-11.55 27.8-9.45L27.8-9.45 27.8-7.95Q27.8-3.85 25.1-1.9L25.1-1.9Q23.8-0.9 22.45-0.45 21.1 0 19.8 0L19.8 0 11.3 0Q10 0 8.65-0.45 7.3-0.9 6-1.9L6-1.9Q3.3-3.8 3.3-7.95L3.3-7.95 3.3-8.55Q3.3-10.7 6.05-10.65L6.05-10.65Q8.85-10.65 8.85-8.55L8.85-8.55 8.85-8Q8.85-6.8 9.6-5.75 10.35-4.7 12.25-4.7L12.25-4.7 18.85-4.7Q20.75-4.7 21.5-5.75 22.25-6.8 22.25-8L22.25-8 22.25-9.4Q22.25-10.05 22.08-10.65 21.9-11.25 21.5-11.73 21.1-12.2 20.45-12.5 19.8-12.8 18.85-12.8L18.85-12.8 11.55-12.8Q9-12.8 6.2-14.6L6.2-14.6Q3.55-16.3 3.55-20.45L3.55-20.45 3.55-22.15Q3.55-24.15 4.25-25.68 4.95-27.2 6.25-28.15L6.25-28.15 6.2-28.15Q7.45-29 8.85-29.55 10.25-30.1 11.55-30.1L11.55-30.1 19.55-30.1Q20.85-30.1 22.23-29.55 23.6-29 24.9-28.15L24.9-28.15 24.85-28.15Q26.15-27.2 26.85-25.68 27.55-24.15 27.55-22.15L27.55-22.15 27.55-21.7Q27.55-20.65 26.85-20.18 26.15-19.7 24.8-19.65L24.8-19.65Q22.05-19.6 22.05-21.7L22.05-21.7 22.05-22.1Q22.05-23.35 21.28-24.38 20.5-25.4 18.65-25.4L18.65-25.4 12.45-25.4Q10.6-25.4 9.83-24.38 9.05-23.35 9.05-22.1L9.05-22.1 9.05-20.9Q9.05-19.6 9.83-18.55 10.6-17.5 12.45-17.5L12.45-17.5Z" opacity="1" transform="matrix(1,0,0,1,0,0)" fill="black" class="wordmark-text-0" id="SvgjsPath2624"></path></svg></g></svg></g></svg></g></svg></g><g></g></svg></g></svg></g></svg></g></svg></g><defs><mask></mask></defs></svg><rect width="333.90454557049503" height="333.90454557049503" fill="black" stroke="none" visibility="hidden"></rect></g></mask><linearGradient x1="0.054" x2="0.941" y1="0.5" y2="0.5" id="e8188184-f996-477d-8fa9-22b94b85fd2a"><stop stop-color="#9c7945" offset="0"></stop><stop stop-color="#faf3aa" offset="0.498"></stop><stop stop-color="#9c7945" offset="1"></stop></linearGradient></svg><rect width="333.90454557049503" height="333.90454557049503" fill="none" stroke="none" visibility="hidden"></rect></g></svg></g></svg>